<svg width="20" height="20" viewBox="0 0 20 20" fill="none" xmlns="http://www.w3.org/2000/svg">
<path d="M12.6042 17.5834L5.58334 10.5834C5.5 10.5 5.44084 10.4097 5.40584 10.3125C5.37084 10.2153 5.35361 10.1111 5.35417 10C5.35417 9.88891 5.37139 9.78474 5.40584 9.68752C5.44028 9.5903 5.49945 9.50002 5.58334 9.41669L12.6042 2.39585C12.7986 2.20141 13.0417 2.10419 13.3333 2.10419C13.625 2.10419 13.875 2.20835 14.0833 2.41669C14.2917 2.62502 14.3958 2.86808 14.3958 3.14585C14.3958 3.42363 14.2917 3.66669 14.0833 3.87502L7.95834 10L14.0833 16.125C14.2778 16.3195 14.375 16.5592 14.375 16.8442C14.375 17.1292 14.2708 17.3756 14.0625 17.5834C13.8542 17.7917 13.6111 17.8959 13.3333 17.8959C13.0556 17.8959 12.8125 17.7917 12.6042 17.5834Z" fill="white"/>
</svg>
