<svg width="25" height="25" viewBox="0 0 25 25" fill="none" xmlns="http://www.w3.org/2000/svg">
<path d="M12.5 1C14.025 1 15.4875 1.6058 16.5659 2.68414C17.6442 3.76247 18.25 5.22501 18.25 6.75C18.25 8.27499 17.6442 9.73753 16.5659 10.8159C15.4875 11.8942 14.025 12.5 12.5 12.5C10.975 12.5 9.51247 11.8942 8.43414 10.8159C7.3558 9.73753 6.75 8.27499 6.75 6.75C6.75 5.22501 7.3558 3.76247 8.43414 2.68414C9.51247 1.6058 10.975 1 12.5 1ZM12.5 15.375C18.8538 15.375 24 17.9481 24 21.125V24H1V21.125C1 17.9481 6.14625 15.375 12.5 15.375Z" fill="white"/>
</svg>
